<svg width="25" height="26" viewBox="0 0 25 26" fill="none" xmlns="http://www.w3.org/2000/svg">
<g clip-path="url(#clip0_2055_188)">
<path d="M12.5002 2.5835C8.46891 2.5835 5.2085 5.84391 5.2085 9.87516C5.2085 15.3439 12.5002 23.4168 12.5002 23.4168C12.5002 23.4168 19.7918 15.3439 19.7918 9.87516C19.7918 5.84391 16.5314 2.5835 12.5002 2.5835ZM7.29183 9.87516C7.29183 7.00016 9.62516 4.66683 12.5002 4.66683C15.3752 4.66683 17.7085 7.00016 17.7085 9.87516C17.7085 12.8752 14.7085 17.3647 12.5002 20.1668C10.3335 17.3856 7.29183 12.8439 7.29183 9.87516Z" fill="#D7C378"/>
<path d="M12.5002 12.4793C13.9384 12.4793 15.1043 11.3134 15.1043 9.87516C15.1043 8.43692 13.9384 7.271 12.5002 7.271C11.0619 7.271 9.896 8.43692 9.896 9.87516C9.896 11.3134 11.0619 12.4793 12.5002 12.4793Z" fill="#D7C378"/>
</g>
<defs>
<clipPath id="clip0_2055_188">
<rect width="25" height="25" fill="white" transform="translate(0 0.5)"/>
</clipPath>
</defs>
</svg>
